# xmcd
#
# Track frame offsets: 
#        150
#        23405
#        56977
#        79500
#        97445
#        118907
#        138717
#        154075
#        170965
#        188982
#        213550
#        241980
#        268880
#        283612
#        307162
#        325272
#
# Disc length: 4669 seconds
#
# Revision: 0
# Processed by: cddbd v1.5.2PL0 Copyright (c) Steve Scherf et al.
# Submitted via: ExactAudioCopy v0.99pb3
#
DISCID=fe123b10
DTITLE=Various Artist - Oh! Jesus
DYEAR=2007
DGENRE=Gospel
TTITLE0=Oh happy Day
TTITLE1=Sunday Morning
TTITLE2=The sherped Song
TTITLE3=Silent Night
TTITLE4=Happy Birthday Jesus
TTITLE5=Joy to the world
TTITLE6=Go tell it on the mountain
TTITLE7=Thank god for Mama
TTITLE8=Amazing Graze
TTITLE9=I will move on up a little higher
TTITLE10=Angels sing Halleluja
TTITLE11=African Noel
TTITLE12=Glory to the newborn King
TTITLE13=Hallelujah
TTITLE14=He was born
TTITLE15=Hallelujah!
EXTD=
EXTT0=
EXTT1=
EXTT2=
EXTT3=
EXTT4=
EXTT5=
EXTT6=
EXTT7=
EXTT8=
EXTT9=
EXTT10=
EXTT11=
EXTT12=
EXTT13=
EXTT14=
EXTT15=
PLAYORDER=
